<mxfile host="app.diagrams.net" agent="Mozilla/5.0 (Windows NT 10.0; Win64; x64) AppleWebKit/537.36 (KHTML, like Gecko) Chrome/133.0.0.0 Safari/537.36 OPR/118.0.0.0" version="27.0.6">
  <diagram name="Página-1" id="YoQqCP4p3tRLKwaqa3iC">
    <mxGraphModel dx="1460" dy="540" grid="1" gridSize="10" guides="1" tooltips="1" connect="1" arrows="1" fold="1" page="1" pageScale="1" pageWidth="1169" pageHeight="827" math="0" shadow="0">
      <root>
        <mxCell id="0" />
        <mxCell id="1" parent="0" />
        <mxCell id="dQ3g4nQFb_6-99uNhmHk-5" style="edgeStyle=orthogonalEdgeStyle;rounded=0;orthogonalLoop=1;jettySize=auto;html=1;exitX=0.25;exitY=0.1;exitDx=0;exitDy=0;exitPerimeter=0;entryX=0.5;entryY=1;entryDx=0;entryDy=0;" parent="1" source="dQ3g4nQFb_6-99uNhmHk-1" target="dQ3g4nQFb_6-99uNhmHk-4" edge="1">
          <mxGeometry relative="1" as="geometry" />
        </mxCell>
        <mxCell id="dQ3g4nQFb_6-99uNhmHk-9" style="edgeStyle=orthogonalEdgeStyle;rounded=0;orthogonalLoop=1;jettySize=auto;html=1;exitX=0.75;exitY=0.1;exitDx=0;exitDy=0;exitPerimeter=0;entryX=0.5;entryY=1;entryDx=0;entryDy=0;" parent="1" source="dQ3g4nQFb_6-99uNhmHk-1" target="dQ3g4nQFb_6-99uNhmHk-8" edge="1">
          <mxGeometry relative="1" as="geometry" />
        </mxCell>
        <mxCell id="dQ3g4nQFb_6-99uNhmHk-41" style="edgeStyle=orthogonalEdgeStyle;rounded=0;orthogonalLoop=1;jettySize=auto;html=1;exitX=0.5;exitY=0;exitDx=0;exitDy=0;exitPerimeter=0;entryX=0.5;entryY=1;entryDx=0;entryDy=0;" parent="1" source="dQ3g4nQFb_6-99uNhmHk-1" target="dQ3g4nQFb_6-99uNhmHk-40" edge="1">
          <mxGeometry relative="1" as="geometry" />
        </mxCell>
        <mxCell id="dQ3g4nQFb_6-99uNhmHk-1" value="Usuari" style="shape=umlActor;verticalLabelPosition=bottom;verticalAlign=top;html=1;outlineConnect=0;" parent="1" vertex="1">
          <mxGeometry x="570" y="361.5" width="30" height="60" as="geometry" />
        </mxCell>
        <mxCell id="dQ3g4nQFb_6-99uNhmHk-4" value="Gestionar perfil" style="ellipse;whiteSpace=wrap;html=1;" parent="1" vertex="1">
          <mxGeometry x="249" y="251.5" width="120" height="60" as="geometry" />
        </mxCell>
        <mxCell id="dQ3g4nQFb_6-99uNhmHk-6" value="Enviar i rebre missatges" style="ellipse;whiteSpace=wrap;html=1;" parent="1" vertex="1">
          <mxGeometry x="708" y="140" width="120" height="60" as="geometry" />
        </mxCell>
        <mxCell id="dQ3g4nQFb_6-99uNhmHk-8" value="Consultar altres perfils" style="ellipse;whiteSpace=wrap;html=1;" parent="1" vertex="1">
          <mxGeometry x="820" y="251.5" width="120" height="60" as="geometry" />
        </mxCell>
        <mxCell id="dQ3g4nQFb_6-99uNhmHk-10" value="Reportar altres usuaris" style="ellipse;whiteSpace=wrap;html=1;" parent="1" vertex="1">
          <mxGeometry x="858" y="140" width="120" height="65" as="geometry" />
        </mxCell>
        <mxCell id="dQ3g4nQFb_6-99uNhmHk-14" style="edgeStyle=orthogonalEdgeStyle;rounded=0;orthogonalLoop=1;jettySize=auto;html=1;exitX=0.75;exitY=0.1;exitDx=0;exitDy=0;exitPerimeter=0;" parent="1" source="dQ3g4nQFb_6-99uNhmHk-12" edge="1">
          <mxGeometry relative="1" as="geometry">
            <mxPoint x="586" y="449" as="targetPoint" />
            <mxPoint x="303.5" y="535" as="sourcePoint" />
          </mxGeometry>
        </mxCell>
        <mxCell id="dQ3g4nQFb_6-99uNhmHk-25" style="edgeStyle=orthogonalEdgeStyle;rounded=0;orthogonalLoop=1;jettySize=auto;html=1;exitX=0.5;exitY=0;exitDx=0;exitDy=0;exitPerimeter=0;entryX=1;entryY=0.5;entryDx=0;entryDy=0;" parent="1" source="dQ3g4nQFb_6-99uNhmHk-12" target="dQ3g4nQFb_6-99uNhmHk-17" edge="1">
          <mxGeometry relative="1" as="geometry" />
        </mxCell>
        <mxCell id="dQ3g4nQFb_6-99uNhmHk-12" value="Jugador" style="shape=umlActor;verticalLabelPosition=bottom;verticalAlign=top;html=1;outlineConnect=0;" parent="1" vertex="1">
          <mxGeometry x="275" y="529" width="30" height="60" as="geometry" />
        </mxCell>
        <mxCell id="dQ3g4nQFb_6-99uNhmHk-16" style="edgeStyle=orthogonalEdgeStyle;rounded=0;orthogonalLoop=1;jettySize=auto;html=1;exitX=0.25;exitY=0.1;exitDx=0;exitDy=0;exitPerimeter=0;" parent="1" source="dQ3g4nQFb_6-99uNhmHk-13" edge="1">
          <mxGeometry relative="1" as="geometry">
            <mxPoint x="586" y="449" as="targetPoint" />
            <mxPoint x="932.5" y="535" as="sourcePoint" />
          </mxGeometry>
        </mxCell>
        <mxCell id="dQ3g4nQFb_6-99uNhmHk-31" style="edgeStyle=orthogonalEdgeStyle;rounded=0;orthogonalLoop=1;jettySize=auto;html=1;exitX=0.5;exitY=0;exitDx=0;exitDy=0;exitPerimeter=0;entryX=1;entryY=0.5;entryDx=0;entryDy=0;" parent="1" source="dQ3g4nQFb_6-99uNhmHk-13" target="dQ3g4nQFb_6-99uNhmHk-27" edge="1">
          <mxGeometry relative="1" as="geometry" />
        </mxCell>
        <mxCell id="dQ3g4nQFb_6-99uNhmHk-32" style="edgeStyle=orthogonalEdgeStyle;rounded=0;orthogonalLoop=1;jettySize=auto;html=1;exitX=0.5;exitY=0;exitDx=0;exitDy=0;exitPerimeter=0;entryX=0;entryY=0.5;entryDx=0;entryDy=0;" parent="1" source="dQ3g4nQFb_6-99uNhmHk-13" target="dQ3g4nQFb_6-99uNhmHk-28" edge="1">
          <mxGeometry relative="1" as="geometry" />
        </mxCell>
        <mxCell id="dQ3g4nQFb_6-99uNhmHk-33" style="edgeStyle=orthogonalEdgeStyle;rounded=0;orthogonalLoop=1;jettySize=auto;html=1;exitX=0.5;exitY=0.5;exitDx=0;exitDy=0;exitPerimeter=0;entryX=0.5;entryY=0;entryDx=0;entryDy=0;" parent="1" source="dQ3g4nQFb_6-99uNhmHk-13" target="dQ3g4nQFb_6-99uNhmHk-29" edge="1">
          <mxGeometry relative="1" as="geometry" />
        </mxCell>
        <mxCell id="x6CcU6tTwecmRvXLGNaY-6" style="edgeStyle=orthogonalEdgeStyle;rounded=0;orthogonalLoop=1;jettySize=auto;html=1;exitX=0.5;exitY=0.5;exitDx=0;exitDy=0;exitPerimeter=0;" edge="1" parent="1" source="dQ3g4nQFb_6-99uNhmHk-13" target="x6CcU6tTwecmRvXLGNaY-5">
          <mxGeometry relative="1" as="geometry" />
        </mxCell>
        <mxCell id="dQ3g4nQFb_6-99uNhmHk-13" value="Game Màster" style="shape=umlActor;verticalLabelPosition=bottom;verticalAlign=top;html=1;outlineConnect=0;" parent="1" vertex="1">
          <mxGeometry x="919" y="529" width="30" height="60" as="geometry" />
        </mxCell>
        <mxCell id="dQ3g4nQFb_6-99uNhmHk-17" value="Cercar partides" style="ellipse;whiteSpace=wrap;html=1;" parent="1" vertex="1">
          <mxGeometry x="100" y="439" width="120" height="70" as="geometry" />
        </mxCell>
        <mxCell id="dQ3g4nQFb_6-99uNhmHk-18" value="Unir-se a partides" style="ellipse;whiteSpace=wrap;html=1;" parent="1" vertex="1">
          <mxGeometry x="100" y="311.5" width="120" height="70" as="geometry" />
        </mxCell>
        <mxCell id="dQ3g4nQFb_6-99uNhmHk-19" value="Desar partides" style="ellipse;whiteSpace=wrap;html=1;" parent="1" vertex="1">
          <mxGeometry x="100" y="560" width="120" height="70" as="geometry" />
        </mxCell>
        <mxCell id="dQ3g4nQFb_6-99uNhmHk-27" value="Publicar partides" style="ellipse;whiteSpace=wrap;html=1;" parent="1" vertex="1">
          <mxGeometry x="760" y="439" width="120" height="70" as="geometry" />
        </mxCell>
        <mxCell id="dQ3g4nQFb_6-99uNhmHk-28" value="Gestionar sol·licituts de jugadors" style="ellipse;whiteSpace=wrap;html=1;" parent="1" vertex="1">
          <mxGeometry x="995" y="439" width="120" height="70" as="geometry" />
        </mxCell>
        <mxCell id="dQ3g4nQFb_6-99uNhmHk-29" value="Modificar i cancel·lar partides" style="ellipse;whiteSpace=wrap;html=1;" parent="1" vertex="1">
          <mxGeometry x="995" y="598" width="120" height="70" as="geometry" />
        </mxCell>
        <mxCell id="dQ3g4nQFb_6-99uNhmHk-35" value="&amp;lt;&amp;lt;include&amp;gt;&amp;gt;" style="html=1;verticalAlign=bottom;labelBackgroundColor=none;endArrow=open;endFill=0;dashed=1;rounded=0;exitX=0;exitY=0;exitDx=0;exitDy=0;entryX=0.5;entryY=1;entryDx=0;entryDy=0;" parent="1" source="dQ3g4nQFb_6-99uNhmHk-4" target="dQ3g4nQFb_6-99uNhmHk-36" edge="1">
          <mxGeometry x="-0.1168" y="-10" width="160" relative="1" as="geometry">
            <mxPoint x="290.57359312880703" y="251.49679656440352" as="sourcePoint" />
            <mxPoint x="203" y="220.21" as="targetPoint" />
            <mxPoint as="offset" />
          </mxGeometry>
        </mxCell>
        <mxCell id="dQ3g4nQFb_6-99uNhmHk-36" value="Editar informació bàsica" style="ellipse;whiteSpace=wrap;html=1;" parent="1" vertex="1">
          <mxGeometry x="103" y="90" width="120" height="60" as="geometry" />
        </mxCell>
        <mxCell id="dQ3g4nQFb_6-99uNhmHk-37" value="&amp;lt;&amp;lt;extend&amp;gt;&amp;gt;" style="html=1;verticalAlign=bottom;labelBackgroundColor=none;endArrow=open;endFill=0;dashed=1;rounded=0;exitX=0.5;exitY=1;exitDx=0;exitDy=0;entryX=0.5;entryY=0;entryDx=0;entryDy=0;" parent="1" source="dQ3g4nQFb_6-99uNhmHk-18" target="dQ3g4nQFb_6-99uNhmHk-17" edge="1">
          <mxGeometry x="-0.0087" y="30" width="160" relative="1" as="geometry">
            <mxPoint x="110" y="420" as="sourcePoint" />
            <mxPoint x="270" y="420" as="targetPoint" />
            <mxPoint as="offset" />
          </mxGeometry>
        </mxCell>
        <mxCell id="dQ3g4nQFb_6-99uNhmHk-38" value="&amp;lt;&amp;lt;extend&amp;gt;&amp;gt;" style="html=1;verticalAlign=bottom;labelBackgroundColor=none;endArrow=open;endFill=0;dashed=1;rounded=0;exitX=0.5;exitY=1;exitDx=0;exitDy=0;" parent="1" source="dQ3g4nQFb_6-99uNhmHk-6" target="dQ3g4nQFb_6-99uNhmHk-8" edge="1">
          <mxGeometry x="0.2022" y="20" width="160" relative="1" as="geometry">
            <mxPoint x="748" y="211.21" as="sourcePoint" />
            <mxPoint x="748" y="268.21000000000004" as="targetPoint" />
            <mxPoint as="offset" />
          </mxGeometry>
        </mxCell>
        <mxCell id="dQ3g4nQFb_6-99uNhmHk-39" value="&amp;lt;&amp;lt;extend&amp;gt;&amp;gt;" style="html=1;verticalAlign=bottom;labelBackgroundColor=none;endArrow=open;endFill=0;dashed=1;rounded=0;exitX=0.5;exitY=1;exitDx=0;exitDy=0;" parent="1" source="dQ3g4nQFb_6-99uNhmHk-10" target="dQ3g4nQFb_6-99uNhmHk-8" edge="1">
          <mxGeometry x="-0.0087" y="30" width="160" relative="1" as="geometry">
            <mxPoint x="917.67" y="240" as="sourcePoint" />
            <mxPoint x="917.67" y="297" as="targetPoint" />
            <mxPoint as="offset" />
          </mxGeometry>
        </mxCell>
        <mxCell id="dQ3g4nQFb_6-99uNhmHk-40" value="Login" style="ellipse;whiteSpace=wrap;html=1;" parent="1" vertex="1">
          <mxGeometry x="525" y="251.5" width="120" height="60" as="geometry" />
        </mxCell>
        <mxCell id="dQ3g4nQFb_6-99uNhmHk-42" value="&amp;lt;&amp;lt;include&amp;gt;&amp;gt;" style="html=1;verticalAlign=bottom;labelBackgroundColor=none;endArrow=open;endFill=0;dashed=1;rounded=0;exitX=0;exitY=0.5;exitDx=0;exitDy=0;entryX=1;entryY=0.5;entryDx=0;entryDy=0;" parent="1" source="dQ3g4nQFb_6-99uNhmHk-40" target="dQ3g4nQFb_6-99uNhmHk-4" edge="1">
          <mxGeometry x="-0.0788" y="-1" width="160" relative="1" as="geometry">
            <mxPoint x="438" y="281.5" as="sourcePoint" />
            <mxPoint x="313" y="205" as="targetPoint" />
            <mxPoint as="offset" />
          </mxGeometry>
        </mxCell>
        <mxCell id="dQ3g4nQFb_6-99uNhmHk-43" value="&amp;lt;&amp;lt;include&amp;gt;&amp;gt;" style="html=1;verticalAlign=bottom;labelBackgroundColor=none;endArrow=open;endFill=0;dashed=1;rounded=0;exitX=1;exitY=0.5;exitDx=0;exitDy=0;entryX=0;entryY=0.5;entryDx=0;entryDy=0;" parent="1" source="dQ3g4nQFb_6-99uNhmHk-40" target="dQ3g4nQFb_6-99uNhmHk-8" edge="1">
          <mxGeometry x="-0.0788" y="-1" width="160" relative="1" as="geometry">
            <mxPoint x="743" y="281.5" as="sourcePoint" />
            <mxPoint x="655.5" y="292" as="targetPoint" />
            <mxPoint as="offset" />
          </mxGeometry>
        </mxCell>
        <mxCell id="dQ3g4nQFb_6-99uNhmHk-44" value="Valorar usuaris" style="ellipse;whiteSpace=wrap;html=1;" parent="1" vertex="1">
          <mxGeometry x="1008" y="137.5" width="120" height="70" as="geometry" />
        </mxCell>
        <mxCell id="dQ3g4nQFb_6-99uNhmHk-45" value="&amp;lt;&amp;lt;extend&amp;gt;&amp;gt;" style="html=1;verticalAlign=bottom;labelBackgroundColor=none;endArrow=open;endFill=0;dashed=1;rounded=0;exitX=0.5;exitY=1;exitDx=0;exitDy=0;entryX=1;entryY=0.5;entryDx=0;entryDy=0;" parent="1" source="dQ3g4nQFb_6-99uNhmHk-44" target="dQ3g4nQFb_6-99uNhmHk-8" edge="1">
          <mxGeometry x="-0.0087" y="30" width="160" relative="1" as="geometry">
            <mxPoint x="1031" y="230" as="sourcePoint" />
            <mxPoint x="1008" y="277" as="targetPoint" />
            <mxPoint as="offset" />
          </mxGeometry>
        </mxCell>
        <mxCell id="dQ3g4nQFb_6-99uNhmHk-46" value="&amp;lt;&amp;lt;extend&amp;gt;&amp;gt;" style="html=1;verticalAlign=bottom;labelBackgroundColor=none;endArrow=open;endFill=0;dashed=1;rounded=0;exitX=0.5;exitY=0;exitDx=0;exitDy=0;entryX=0.5;entryY=1;entryDx=0;entryDy=0;" parent="1" source="dQ3g4nQFb_6-99uNhmHk-19" target="dQ3g4nQFb_6-99uNhmHk-17" edge="1">
          <mxGeometry x="-0.2157" y="30" width="160" relative="1" as="geometry">
            <mxPoint x="159.67" y="560" as="sourcePoint" />
            <mxPoint x="159.67" y="617" as="targetPoint" />
            <mxPoint as="offset" />
          </mxGeometry>
        </mxCell>
        <mxCell id="vifOnb5EJLgUsU_zZwA6-1" value="&amp;lt;&amp;lt;include&amp;gt;&amp;gt;" style="html=1;verticalAlign=bottom;labelBackgroundColor=none;endArrow=open;endFill=0;dashed=1;rounded=0;exitX=0.5;exitY=0;exitDx=0;exitDy=0;entryX=0.5;entryY=1;entryDx=0;entryDy=0;" parent="1" source="dQ3g4nQFb_6-99uNhmHk-4" target="vifOnb5EJLgUsU_zZwA6-2" edge="1">
          <mxGeometry x="-0.3793" y="-24" width="160" relative="1" as="geometry">
            <mxPoint x="417" y="260" as="sourcePoint" />
            <mxPoint x="353" y="220.21" as="targetPoint" />
            <mxPoint as="offset" />
          </mxGeometry>
        </mxCell>
        <mxCell id="vifOnb5EJLgUsU_zZwA6-2" value="Gestionar jocs preferits" style="ellipse;whiteSpace=wrap;html=1;" parent="1" vertex="1">
          <mxGeometry x="249" y="90.00000000000001" width="120" height="60" as="geometry" />
        </mxCell>
        <mxCell id="vifOnb5EJLgUsU_zZwA6-3" value="&amp;lt;&amp;lt;include&amp;gt;&amp;gt;" style="html=1;verticalAlign=bottom;labelBackgroundColor=none;endArrow=open;endFill=0;dashed=1;rounded=0;exitX=1;exitY=0;exitDx=0;exitDy=0;entryX=0.5;entryY=1;entryDx=0;entryDy=0;" parent="1" source="dQ3g4nQFb_6-99uNhmHk-4" target="vifOnb5EJLgUsU_zZwA6-4" edge="1">
          <mxGeometry x="-0.1521" y="-25" width="160" relative="1" as="geometry">
            <mxPoint x="453" y="251" as="sourcePoint" />
            <mxPoint x="497" y="219.21" as="targetPoint" />
            <mxPoint as="offset" />
          </mxGeometry>
        </mxCell>
        <mxCell id="vifOnb5EJLgUsU_zZwA6-4" value="Configurar disponibilitat" style="ellipse;whiteSpace=wrap;html=1;" parent="1" vertex="1">
          <mxGeometry x="393" y="90.00000000000001" width="120" height="60" as="geometry" />
        </mxCell>
        <mxCell id="vifOnb5EJLgUsU_zZwA6-5" value="Filtrar partides segons preferències" style="ellipse;whiteSpace=wrap;html=1;" parent="1" vertex="1">
          <mxGeometry x="10" y="370" width="120" height="70" as="geometry" />
        </mxCell>
        <mxCell id="vifOnb5EJLgUsU_zZwA6-6" value="&amp;lt;&amp;lt;extend&amp;gt;&amp;gt;" style="html=1;verticalAlign=bottom;labelBackgroundColor=none;endArrow=open;endFill=0;dashed=1;rounded=0;exitX=0.5;exitY=1;exitDx=0;exitDy=0;entryX=0;entryY=0.5;entryDx=0;entryDy=0;" parent="1" source="vifOnb5EJLgUsU_zZwA6-5" target="dQ3g4nQFb_6-99uNhmHk-17" edge="1">
          <mxGeometry x="-0.2996" y="-27" width="160" relative="1" as="geometry">
            <mxPoint x="20" y="478.5" as="sourcePoint" />
            <mxPoint x="70" y="497.5" as="targetPoint" />
            <mxPoint as="offset" />
          </mxGeometry>
        </mxCell>
        <mxCell id="vifOnb5EJLgUsU_zZwA6-7" style="edgeStyle=orthogonalEdgeStyle;rounded=0;orthogonalLoop=1;jettySize=auto;html=1;entryX=0.5;entryY=0;entryDx=0;entryDy=0;exitX=0.5;exitY=0.5;exitDx=0;exitDy=0;exitPerimeter=0;" parent="1" source="dQ3g4nQFb_6-99uNhmHk-12" target="vifOnb5EJLgUsU_zZwA6-8" edge="1">
          <mxGeometry relative="1" as="geometry">
            <mxPoint x="381" y="715" as="sourcePoint" />
            <mxPoint x="335.9999999999999" y="660" as="targetPoint" />
          </mxGeometry>
        </mxCell>
        <mxCell id="vifOnb5EJLgUsU_zZwA6-8" value="Gestionar sol·licituds enviades" style="ellipse;whiteSpace=wrap;html=1;" parent="1" vertex="1">
          <mxGeometry x="329" y="610" width="120" height="70" as="geometry" />
        </mxCell>
        <mxCell id="vifOnb5EJLgUsU_zZwA6-9" value="Gestionar participants" style="ellipse;whiteSpace=wrap;html=1;" parent="1" vertex="1">
          <mxGeometry x="752.5" y="599" width="120" height="70" as="geometry" />
        </mxCell>
        <mxCell id="vifOnb5EJLgUsU_zZwA6-10" style="edgeStyle=orthogonalEdgeStyle;rounded=0;orthogonalLoop=1;jettySize=auto;html=1;exitX=0.5;exitY=0.5;exitDx=0;exitDy=0;exitPerimeter=0;entryX=0.5;entryY=0;entryDx=0;entryDy=0;" parent="1" source="dQ3g4nQFb_6-99uNhmHk-13" target="vifOnb5EJLgUsU_zZwA6-9" edge="1">
          <mxGeometry relative="1" as="geometry">
            <mxPoint x="691.5" y="560" as="sourcePoint" />
          </mxGeometry>
        </mxCell>
        <mxCell id="x6CcU6tTwecmRvXLGNaY-1" value="Consultar partides passades" style="ellipse;whiteSpace=wrap;html=1;" vertex="1" parent="1">
          <mxGeometry x="524" y="111.5" width="120" height="60" as="geometry" />
        </mxCell>
        <mxCell id="x6CcU6tTwecmRvXLGNaY-2" value="&amp;lt;&amp;lt;extend&amp;gt;&amp;gt;" style="html=1;verticalAlign=bottom;labelBackgroundColor=none;endArrow=open;endFill=0;dashed=1;rounded=0;exitX=0.5;exitY=1;exitDx=0;exitDy=0;entryX=0.5;entryY=0;entryDx=0;entryDy=0;" edge="1" source="x6CcU6tTwecmRvXLGNaY-1" parent="1" target="dQ3g4nQFb_6-99uNhmHk-40">
          <mxGeometry x="0.2022" y="20" width="160" relative="1" as="geometry">
            <mxPoint x="590" y="182.71" as="sourcePoint" />
            <mxPoint x="688" y="228.5" as="targetPoint" />
            <mxPoint as="offset" />
          </mxGeometry>
        </mxCell>
        <mxCell id="x6CcU6tTwecmRvXLGNaY-3" value="Gestionar partides desades" style="ellipse;whiteSpace=wrap;html=1;" vertex="1" parent="1">
          <mxGeometry x="180" y="650" width="120" height="70" as="geometry" />
        </mxCell>
        <mxCell id="x6CcU6tTwecmRvXLGNaY-4" style="edgeStyle=orthogonalEdgeStyle;rounded=0;orthogonalLoop=1;jettySize=auto;html=1;entryX=0.5;entryY=0;entryDx=0;entryDy=0;exitX=0.5;exitY=0.5;exitDx=0;exitDy=0;exitPerimeter=0;" edge="1" target="x6CcU6tTwecmRvXLGNaY-3" parent="1" source="dQ3g4nQFb_6-99uNhmHk-12">
          <mxGeometry relative="1" as="geometry">
            <mxPoint x="120" y="700" as="sourcePoint" />
            <mxPoint x="190.9999999999999" y="801" as="targetPoint" />
            <Array as="points">
              <mxPoint x="240" y="559" />
            </Array>
          </mxGeometry>
        </mxCell>
        <mxCell id="x6CcU6tTwecmRvXLGNaY-5" value="Cancel·lar partides" style="ellipse;whiteSpace=wrap;html=1;" vertex="1" parent="1">
          <mxGeometry x="620" y="599" width="120" height="70" as="geometry" />
        </mxCell>
      </root>
    </mxGraphModel>
  </diagram>
</mxfile>
